:SAMPLES-PER-SECOND 30
:FULLY-SPECIFIED
:DEGREES
139
root  -62.227 40.0438 -4.14642 119.136 -88.5304 -122.755
RightUpLeg  9.94891 -7.82539 -1.84106
RightLeg  29.6295 3.22752 1.75261
RightFoot  -7.37295 -0.386311 9.80369
RightToes  -1.16417e-010 0 -3.6325e-017
Spine  1.47063 5.22259 11.5796
Spine1  7.9658 7.94922 -10.0816
HEad  -12.3515 -5.62151 0.978431
LeftShoulder1  7.02345 -11.1521 -41.5681
LeftArm  3.59494 47.9104 -15.7554
LeftForeArm  177.059 -63.7941 -160.728
LeftHand  -0.244104 0.0205437 5.32207
RightShoulder  5.58721 9.74555 36.1845
RightArm  20.0681 -7.37257 33.6883
RightForeArm  152.883 68.8516 152.695
RightHand  -0.462318 -15.1543 4.31685
LeftUpLeg  -19.7212 2.51044 1.43533
LeftLeg  1.96639 10.9726 -4.39261
LeftFoot  -7.00163 0.266087 -6.03083
LeftToes  -1.16419e-010 -9.34044e-011 -2.32061e-011
140
root  -63.8897 39.332 -4.00604 149.006 -88.5075 -153.572
RightUpLeg  10.3494 -6.99525 -3.74739
RightLeg  35.9628 4.35957 3.16415
RightFoot  -7.20076 -0.521421 12.8353
RightToes  -1.16417e-010 0 -3.6325e-017
Spine  1.81709 5.3259 9.58118
Spine1  8.63376 7.84624 -8.64456
HEad  -12.5705 -5.35109 1.22088
LeftShoulder1  6.82813 -10.6781 -41.779
LeftArm  1.10668 48.213 -16.1003
LeftForeArm  176.266 -63.9209 -160.55
LeftHand  -0.244104 0.0205437 5.32207
RightShoulder  5.65227 9.85611 36.3178
RightArm  21.7411 -5.68805 33.3482
RightForeArm  152.703 70.563 150.2
RightHand  -0.574341 -15.1805 5.60079
LeftUpLeg  -21.0814 6.10831 -1.04419
LeftLeg  8.2131 7.3909 -3.06827
LeftFoot  0.110321 0.251291 -2.84613
LeftToes  -1.16419e-010 -9.34044e-011 -2.32061e-011
141
root  -65.3802 38.6645 -3.94703 -146.678 -87.8945 140.677
RightUpLeg  8.76148 -6.08747 -7.29174
RightLeg  45.2771 5.27892 5.3898
RightFoot  -2.1817 -1.16562 14.3186
RightToes  -1.16417e-010 0 -3.6325e-017
Spine  4.00568 5.34446 5.58492
Spine1  7.98803 7.51805 -6.83386
HEad  -13.5903 -4.66289 2.77467
LeftShoulder1  6.72344 -10.1486 -42.7913
LeftArm  -1.0044 45.7793 -16.2004
LeftForeArm  175.177 -65.4562 -159.089
LeftHand  -0.244104 0.0205437 5.32207
RightShoulder  6.07434 10.1558 38.3981
RightArm  21.9626 -4.66962 32.1246
RightForeArm  152.27 73.2232 145.238
RightHand  -0.548871 -14.1894 5.95721
LeftUpLeg  -22.978 14.2615 -6.78542
LeftLeg  16.1455 -0.121893 -0.887319
LeftFoot  6.88212 -0.460415 2.71117
LeftToes  -1.16419e-010 -9.34044e-011 -2.32061e-011
142
root  -66.5387 38.1548 -3.89425 -123.864 -85.7828 116.484
RightUpLeg  4.5272 -4.65035 -10.5731
RightLeg  55.7308 4.51934 6.62524
RightFoot  7.29438 -2.29047 14.225
RightToes  -1.16417e-010 0 -3.6325e-017
Spine  7.71173 5.16108 2.67214
Spine1  6.46181 7.3364 -7.17927
HEad  -15.4506 -4.24678 4.13021
LeftShoulder1  6.86572 -10.0856 -43.9601
LeftArm  -3.03401 41.2382 -16.7224
LeftForeArm  171.844 -69.0072 -154.851
LeftHand  -0.244104 0.0205437 5.32207
RightShoulder  6.70589 10.5822 41.3858
RightArm  20.0411 -4.85193 31.8766
RightForeArm  145.658 77.4412 131.486
RightHand  -0.488316 -13.1497 5.9777
LeftUpLeg  -24.3758 14.4721 -9.74209
LeftLeg  23.5901 0.291408 0.66689
LeftFoot  7.0058 -1.22266 7.40534
LeftToes  -1.16419e-010 -9.34044e-011 -2.32061e-011
143
root  -67.3935 37.9357 -3.77 -127.825 -84.5486 119.716
RightUpLeg  -1.34935 -3.17844 -11.6643
RightLeg  64.2941 2.36002 4.68143
RightFoot  13.654 -2.80881 13.065
RightToes  -1.16417e-010 0 -3.6325e-017
Spine  11.0459 4.57512 2.71723
Spine1  5.49273 7.1258 -9.26051
HEad  -17.2657 -4.33114 3.59884
LeftShoulder1  7.23961 -10.4751 -45.1184
LeftArm  -5.35107 36.0571 -18.3535
LeftForeArm  165.357 -73.6607 -146.494
LeftHand  -0.244104 0.0205437 5.32207
RightShoulder  7.12014 10.8101 43.3751
RightArm  16.1909 -5.88422 33.5295
RightForeArm  124.32 80.8605 100.212
RightHand  -0.560516 -12.7088 7.474
LeftUpLeg  -24.7092 12.0565 -10.1784
LeftLeg  28.7251 3.36336 2.3218
LeftFoot  2.84898 -1.20209 9.43395
LeftToes  -1.16419e-010 -9.34044e-011 -2.32061e-011
144
root  -68.1913 38.1878 -3.59585 -143.279 -84.5349 135.23
RightUpLeg  -7.3602 -2.4293 -10.3432
RightLeg  69.2397 0.190865 -0.164154
RightFoot  12.9739 -2.06169 9.87912
RightToes  -1.16417e-010 0 -3.6325e-017
Spine  12.695 3.75618 4.43694
Spine1  4.44002 6.52897 -9.87678
HEad  -17.7004 -4.21142 1.24664
LeftShoulder1  7.68024 -11.0778 -45.923
LeftArm  -7.68391 32.5067 -21.2077
LeftForeArm  157.029 -77.5209 -134.238
LeftHand  -0.244104 0.0205437 5.32207
RightShoulder  7.21566 10.8383 43.8934
RightArm  12.217 -7.7997 35.2825
RightForeArm  98.6984 80.6206 66.7672
RightHand  -0.599227 -12.091 8.85205
LeftUpLeg  -23.42 11.2671 -8.95076
LeftLeg  29.349 4.9507 3.34507
LeftFoot  0.492788 -0.947882 9.09999
LeftToes  -1.16419e-010 -9.34044e-011 -2.32061e-011
145
root  -68.9556 38.8094 -3.47064 -161.331 -84.2361 153.768
RightUpLeg  -12.5566 -1.96012 -8.32242
RightLeg  69.9451 -1.38094 -4.96726
RightFoot  8.43318 -1.03358 6.27681
RightToes  -1.16417e-010 0 -3.6325e-017
Spine  13.8878 3.08694 5.27795
Spine1  1.69692 5.51531 -8.5788
HEad  -16.4937 -2.62624 -1.01467
LeftShoulder1  7.98678 -11.7688 -45.589
LeftArm  -9.49207 31.8813 -24.8231
LeftForeArm  148.73 -79.7491 -121.03
LeftHand  -0.244104 0.0205437 5.32207
RightShoulder  7.27649 10.9267 43.9962
RightArm  10.1466 -10.9341 35.2051
RightForeArm  82.7691 79.0025 51.9265
RightHand  -0.456063 -11.5388 7.05295
LeftUpLeg  -20.7813 12.3756 -7.2938
LeftLeg  26.1172 4.94167 2.9837
LeftFoot  1.27129 -0.925969 8.29614
LeftToes  -1.16419e-010 -9.34044e-011 -2.32061e-011
146
root  -69.6288 39.5037 -3.40035 -172.153 -83.329 165.096
RightUpLeg  -16.5271 -1.18086 -6.94006
RightLeg  66.908 -2.52889 -7.21007
RightFoot  4.70689 -0.615266 4.62732
RightToes  -1.16417e-010 0 -3.6325e-017
Spine  14.8989 2.33496 4.87161
Spine1  -0.508336 4.27067 -7.07511
HEad  -16.1658 0.115805 -1.88496
LeftShoulder1  7.8524 -11.9083 -44.3664
LeftArm  -10.7273 31.8339 -28.1918
LeftForeArm  138.319 -80.8299 -108.156
LeftHand  -0.244104 0.0205437 5.32207
RightShoulder  7.32995 10.9251 44.3396
RightArm  10.5835 -13.2674 33.5839
RightForeArm  67.3606 77.3513 45.5504
RightHand  -0.188511 -11.0724 2.43435
LeftUpLeg  -17.6596 14.812 -6.15826
LeftLeg  21.5169 3.59794 1.96149
LeftFoot  2.26348 -0.957288 7.89351
LeftToes  -1.16419e-010 -9.34044e-011 -2.32061e-011
147
root  -70.2488 40.1289 -3.29854 177.639 -82.4745 175.666
RightUpLeg  -18.7826 -0.500002 -5.58444
RightLeg  60.6387 -3.63878 -7.49959
RightFoot  2.5373 -0.473306 4.02777
RightToes  -1.16417e-010 0 -3.6325e-017
Spine  15.6348 1.41949 5.34408
Spine1  -1.32744 3.12468 -5.83936
HEad  -16.9185 2.64987 -2.51258
LeftShoulder1  7.78155 -11.8125 -44.2356
LeftArm  -10.9615 31.0615 -29.6799
LeftForeArm  121.544 -81.1944 -92.877
LeftHand  -0.244104 0.0205437 5.32207
RightShoulder  6.95436 10.5835 43.0196
RightArm  11.7809 -14.9741 32.6473
RightForeArm  54.8032 75.8546 41.5855
RightHand  -0.00224354 -10.3191 -1.14221
LeftUpLeg  -14.2288 16.4566 -4.45412
LeftLeg  16.8435 2.76742 0.782745
LeftFoot  2.49186 -0.94091 7.62028
LeftToes  -1.16419e-010 -9.34044e-011 -2.32061e-011
148
root  -70.869 40.6233 -3.18475 167.263 -81.7588 -173.583
RightUpLeg  -19.2107 -0.271048 -4.08388
RightLeg  51.7984 -5.15191 -7.34277
RightFoot  0.0189879 -0.335518 3.36611
RightToes  -1.16417e-010 0 -3.6325e-017
Spine  15.9696 0.485717 6.86838
Spine1  -1.71262 2.28598 -5.62343
HEad  -17.0853 4.3826 -2.6646
LeftShoulder1  7.69797 -11.7555 -43.9077
LeftArm  -10.4482 30.4013 -30.537
LeftForeArm  100.89 -80.7721 -74.9509
LeftHand  -0.244104 0.0205437 5.32207
RightShoulder  6.51448 10.1806 41.3823
RightArm  12.41 -16.995 31.8355
RightForeArm  48.2285 74.7393 38.6482
RightHand  0.0137222 -10.1142 -1.62461
LeftUpLeg  -10.766 13.3294 -1.38634
LeftLeg  12.5058 6.4848 -0.978377
LeftFoot  3.14932 -0.969293 7.46014
LeftToes  -1.16419e-010 -9.34044e-011 -2.32061e-011
149
root  -71.5229 40.9597 -3.14994 161.697 -81.3557 -167.636
RightUpLeg  -18.1152 -0.393988 -3.22566
RightLeg  41.6439 -7.05537 -6.94934
RightFoot  -2.77661 -0.246729 3.06372
RightToes  -1.16417e-010 0 -3.6325e-017
Spine  15.6269 -0.0398008 7.12531
Spine1  -1.47113 1.62205 -4.85617
HEad  -16.4745 5.3804 -2.70067
LeftShoulder1  7.56878 -11.5691 -43.6933
LeftArm  -9.91206 29.7683 -31.3042
LeftForeArm  82.2892 -79.397 -57.4596
LeftHand  -0.244104 0.0205437 5.32207
RightShoulder  6.15371 9.86332 39.9057
RightArm  12.5753 -18.923 30.66
RightForeArm  44.2336 73.5421 35.3848
RightHand  -0.00927932 -10.2252 -1.0584
LeftUpLeg  -8.16949 8.86583 0.803531
LeftLeg  9.17834 11.1831 -2.6487
LeftFoot  3.92783 -1.04627 7.61656
LeftToes  -1.16419e-010 -9.34044e-011 -2.32061e-011
150
root  -72.212 41.101 -3.22569 161.801 -81.5161 -167.452
RightUpLeg  -16.0874 -1.02188 -3.2823
RightLeg  31.7932 -8.34051 -5.79144
RightFoot  -4.95169 -0.234471 3.60138
RightToes  -1.16417e-010 0 -3.6325e-017
Spine  14.8248 -0.179627 5.79693
Spine1  -0.968365 1.09206 -3.70539
HEad  -15.4032 5.73815 -2.48134
LeftShoulder1  7.49927 -11.4003 -43.7861
LeftArm  -9.72329 29.3379 -31.7918
LeftForeArm  67.9088 -76.9176 -42.6604
LeftHand  -0.244104 0.0205437 5.32207
RightShoulder  5.95689 9.68411 39.0799
RightArm  12.4021 -20.7511 29.1955
RightForeArm  38.0591 71.4741 31.0304
RightHand  0.0266582 -10.0362 -1.9409
LeftUpLeg  -6.88428 6.55972 1.26201
LeftLeg  8.25271 13.379 -3.37647
LeftFoot  3.27047 -1.01127 7.71808
LeftToes  -1.16419e-010 -9.34044e-011 -2.32061e-011
151
root  -72.9023 41.1106 -3.37635 166.245 -82.3034 -171.668
RightUpLeg  -13.4331 -2.83452 -3.85655
RightLeg  22.7144 -7.34814 -3.63301
RightFoot  -5.46763 -0.253211 4.16691
RightToes  -1.16417e-010 0 -3.6325e-017
Spine  13.5236 -0.164313 3.87833
Spine1  -0.246993 0.695125 -2.73353
HEad  -14.6187 5.48561 -1.99346
LeftShoulder1  7.62832 -11.477 -44.3372
LeftArm  -9.66819 29.1058 -31.3891
LeftForeArm  56.8065 -73.0809 -31.085
LeftHand  -0.244104 0.0205437 5.32207
RightShoulder  5.88434 9.53962 39.0263
RightArm  11.5949 -22.552 28.0954
RightForeArm  27.5515 67.6571 25.5947
RightHand  0.106592 -8.90554 -5.05547
LeftUpLeg  -6.22043 6.00967 0.681951
LeftLeg  8.6645 13.4233 -3.60882
LeftFoot  1.79845 -0.879319 7.52719
LeftToes  -1.16419e-010 -9.34044e-011 -2.32061e-011
152
root  -73.5698 41.0993 -3.56634 175.071 -83.5326 179.686
RightUpLeg  -10.5388 -5.64207 -4.71505
RightLeg  15.1052 -3.90609 -1.28442
RightFoot  -3.18082 -0.25598 3.37669
RightToes  -1.16417e-010 0 -3.6325e-017
Spine  11.773 -0.131979 1.99393
Spine1  0.749541 0.397818 -2.03872
HEad  -13.6606 4.88643 -1.33156
LeftShoulder1  7.82069 -11.6488 -44.9704
LeftArm  -9.24804 28.629 -30.134
LeftForeArm  48.2056 -67.3398 -22.0382
LeftHand  -0.244104 0.0205437 5.32207
RightShoulder  5.91691 9.39971 39.7317
RightArm  9.82241 -23.8963 27.8552
RightForeArm  14.3982 61.1262 19.6127
RightHand  0.01314 -5.90405 -9.40489
LeftUpLeg  -5.40909 5.87131 -0.351185
LeftLeg  8.66947 12.6066 -3.96255
LeftFoot  0.960366 -0.796555 7.32823
LeftToes  -1.16419e-010 -9.34044e-011 -2.32061e-011
153
root  -74.2 41.1632 -3.75073 -174.676 -84.4847 169.493
RightUpLeg  -8.0348 -7.24243 -5.68566
RightLeg  10.3042 -1.04126 0.361529
RightFoot  0.879812 -0.109955 1.10439
RightToes  -1.16417e-010 0 -3.6325e-017
Spine  10.1546 -0.112378 1.21627
Spine1  1.70215 0.389657 -2.18779
HEad  -12.6962 3.95847 -0.643536
LeftShoulder1  7.824 -11.6203 -45.077
LeftArm  -8.17916 27.434 -28.6858
LeftForeArm  41.7591 -59.0306 -14.9994
LeftHand  -0.244104 0.0205437 5.32207
RightShoulder  6.05336 9.33348 40.9586
RightArm  7.23514 -24.185 28.4323
RightForeArm  2.39991 51.2642 13.9349
RightHand  -0.427588 -1.61729 -13.1439
LeftUpLeg  -4.08689 5.57918 -1.29105
LeftLeg  7.71633 11.9099 -4.25239
LeftFoot  0.858545 -0.789545 7.32884
LeftToes  -1.16419e-010 -9.34044e-011 -2.32061e-011
